<?xml version="1.0" encoding="utf-8"?>
<!DOCTYPE svg PUBLIC "-//W3C//DTD SVG 1.0//EN" "http://www.w3.org/TR/2001/REC-SVG-20010904/DTD/svg10.dtd">
<svg version="1.0" xmlns="http://www.w3.org/2000/svg" width="362px" height="362px" viewBox="0 0 362 362" preserveAspectRatio="xMidYMid meet">
 <g fill="#272f39">
  <path d="M158 342.9 c-23.9 -2.5 -49.2 -9 -76.5 -19.7 -25.9 -10.1 -30.4 -13.1 -34.2 -23 -1.4 -3.9 -1.5 -5.3 -0.4 -11.8 1.2 -7.3 1.2 -7.4 -2.2 -16.1 -12 -30.5 -12.8 -62.9 -2.3 -94 7.4 -21.9 17.2 -37.9 34 -55.2 10.2 -10.5 21.6 -19.3 40.4 -31.2 17.5 -11.1 22.4 -15.5 26.4 -23.6 3 -6.1 3.3 -7.6 3.8 -18.7 0.6 -13.5 2 -17.3 7.8 -21.2 7.6 -5.2 20.3 -3.1 45 7.5 40.4 17.3 66.8 34.9 88.1 58.6 9.2 10.3 21.9 30.7 28 45.1 5.1 11.9 10 33.1 11 47 4.3 61.6 -23.5 113.1 -75.9 140.7 -24.5 13 -60.1 18.9 -93 15.6z m41 -28.5 c13.2 -2.2 24 -4.7 24 -5.5 0 -0.5 1.8 -1.2 4.1 -1.5 2.3 -0.4 5.2 -1.7 6.6 -3 1.4 -1.3 4.5 -3.1 6.9 -4 2.4 -0.9 4.4 -2.1 4.4 -2.5 0 -0.5 0.7 -0.9 1.5 -0.9 0.8 0 1.5 -0.4 1.5 -1 0 -0.5 0.9 -1 2 -1 1.1 0 2 -0.7 2 -1.5 0 -0.8 0.9 -1.5 2 -1.5 1.1 0 2 -0.7 2 -1.5 0 -0.8 0.5 -1.5 1.2 -1.5 1.5 0 7.8 -4.9 7.8 -6.1 0 -1.5 5.2 -6.9 6.8 -6.9 0.7 0 1.9 -1.3 2.5 -3 0.6 -1.6 1.6 -3 2.3 -3 1.4 0 8.4 -10.9 8.4 -13.1 0 -0.9 1.1 -2.8 2.5 -4.3 1.4 -1.5 2.5 -3.8 2.5 -5.1 0 -1.3 0.5 -2.5 1 -2.7 0.6 -0.2 1.7 -3.2 2.6 -6.8 4.4 -19.9 5.4 -24.9 5.4 -28.7 0 -2.5 0.5 -4.3 1.1 -4.3 1.2 0 0.9 -6.4 -1 -20.5 -1.3 -9.1 -5.5 -24.9 -8.1 -30.4 -1 -2 -2.8 -6.3 -3.9 -9.6 -1.2 -3.3 -2.5 -6.1 -3.1 -6.3 -0.5 -0.2 -1.4 -1.9 -2 -3.8 -0.6 -1.9 -1.6 -3.4 -2.1 -3.4 -0.5 0 -0.9 -0.7 -0.9 -1.5 0 -0.8 -0.4 -1.5 -0.8 -1.5 -0.4 0 -1.6 -1.3 -2.5 -3 -1 -1.6 -2.3 -3.5 -3 -4.2 -0.7 -0.7 -3.3 -4 -5.9 -7.4 -6 -7.8 -19.9 -20.4 -31.3 -28.4 -9.7 -6.8 -34.2 -20.6 -35.1 -19.7 -0.3 0.3 0.4 2.3 1.5 4.6 10 19.5 10.8 39.6 2.5 62.8 -1.3 3.6 -2.4 5.3 -3.6 5.3 -1 0 -1.8 0.6 -1.8 1.3 -0.1 1.6 -3.5 5.7 -4.8 5.7 -0.5 0 -1.2 0.7 -1.6 1.5 -0.3 0.8 -1 1.5 -1.5 1.5 -0.6 0 -2.1 1 -3.5 2.3 -4.3 3.9 -5.6 4.8 -9.4 6.4 -2 0.8 -3.9 1.8 -4.2 2.2 -0.3 0.4 -2.5 1.5 -4.9 2.6 -2.4 1 -5.7 3.2 -7.3 4.7 -1.7 1.6 -4.1 3.1 -5.4 3.4 -1.3 0.3 -2.4 1 -2.4 1.5 0 0.5 -0.6 0.9 -1.4 0.9 -0.8 0 -1.6 0.7 -2 1.5 -0.3 0.8 -1 1.5 -1.6 1.5 -0.6 0 -2 0.9 -3.2 2 -1.2 1.1 -3 2 -4 2 -1 0 -1.8 0.7 -1.8 1.5 0 0.8 -0.8 1.5 -1.8 1.5 -0.9 0 -2.2 1 -2.7 2.2 -0.6 1.3 -2.8 3.2 -4.9 4.3 -2.2 1.1 -4.1 2.6 -4.4 3.4 -0.6 1.8 -9 10.1 -10.2 10.1 -0.6 0 -1 0.6 -1 1.4 0 0.8 -1.6 3.2 -3.5 5.3 -1.9 2.1 -3.5 4.3 -3.5 4.8 0 0.6 -0.9 1.7 -2 2.5 -1.1 0.8 -2 2 -2 2.6 0 0.7 -0.3 1.4 -0.8 1.6 -2.8 1.2 -22 44.1 -24.8 55.3 -0.4 1.7 -1 3.2 -1.4 3.5 -0.4 0.3 -0.9 2.9 -1.2 5.8 l-0.5 5.3 5.5 2.5 c17.4 7.7 50.6 18 67.2 20.9 9.5 1.7 41.6 3.5 43.5 2.5 0.6 -0.3 3.9 -1 7.5 -1.6z m-137 -72.7 c0 -2.8 13.2 -28 19.8 -37.7 7.9 -11.7 21.8 -27.8 30.9 -35.7 7.8 -6.7 23.1 -17.5 31.3 -22.1 13.8 -7.7 28.7 -18 32.8 -22.8 6.7 -7.9 8.8 -17.6 6.1 -29.4 -1 -4.5 -9.4 -22.7 -12.2 -26.5 -1.4 -1.8 -1.6 -1.5 -3.2 4.4 -1 3.4 -3.5 8.8 -5.5 11.9 -6.3 9.8 -13.9 16 -41.5 33.7 -26 16.7 -43.8 37.9 -54.3 64.5 -6.2 15.8 -8.9 35.4 -7.1 51.7 0.7 5.6 1.6 10 2 9.7 0.5 -0.3 0.9 -1.1 0.9 -1.7z m135.4 -181.9 c-0.2 -0.3 -1.8 -1.1 -3.4 -1.7 -2.7 -0.9 -2.9 -0.8 -2.1 0.7 0.5 0.9 2 1.7 3.4 1.7 1.4 0 2.3 -0.3 2.1 -0.7z"/>
 </g>
 <g fill="#49505a">
  <path d="M164.4 319 c-0.3 -0.2 -3.1 -0.5 -6.2 -0.6 -3.1 -0.1 -7.7 -0.7 -10.2 -1.2 -2.5 -0.6 -6.4 -1.3 -8.7 -1.5 -2.3 -0.3 -4.6 -0.8 -5.1 -1.1 -0.4 -0.3 -1.9 -0.7 -3.3 -1 -1.3 -0.3 -3.3 -0.7 -4.5 -1 -8.7 -1.9 -51.3 -17.5 -54 -19.7 -1.2 -1 -1.5 -7.9 -0.4 -7.9 0.4 0 0.7 -1.9 0.8 -4.2 0.1 -2.3 0.7 -4.5 1.3 -4.8 0.5 -0.4 0.9 -1.1 0.8 -1.6 -0.1 -0.5 0 -1.2 0.1 -1.6 0.1 -0.5 0.4 -1.2 0.5 -1.8 0.1 -0.5 0.4 -1.2 0.5 -1.5 0.1 -0.3 0.3 -0.8 0.5 -1.2 0.1 -0.5 0.7 -2.1 1.4 -3.8 0.7 -1.6 1.3 -3.8 1.4 -4.7 0.1 -1 0.5 -1.8 1 -1.8 0.5 0 0.7 -0.6 0.5 -1.2 -0.3 -0.7 0.2 -1.9 0.9 -2.7 0.8 -0.7 1.2 -1.9 0.9 -2.7 -0.3 -0.7 0 -1.4 0.5 -1.6 0.5 -0.2 1.1 -1.3 1.2 -2.6 0 -1.2 0.5 -2.2 1 -2.2 0.4 0 0.5 -0.4 0.2 -1 -0.3 -0.5 -0.1 -1 0.5 -1 0.6 0 0.8 -0.4 0.5 -1 -0.3 -0.5 -0.1 -1 0.5 -1 0.6 0 0.8 -0.4 0.5 -1 -0.3 -0.5 -0.1 -1 0.5 -1 0.6 0 0.8 -0.4 0.5 -1 -0.3 -0.5 -0.1 -1 0.5 -1 0.6 0 0.8 -0.4 0.5 -1 -0.3 -0.5 -0.2 -1 0.3 -1 1 0 4.9 -8 4.5 -9.2 -0.2 -0.5 0.2 -0.8 0.8 -0.8 0.5 0 0.8 -0.4 0.5 -0.9 -0.3 -0.5 0.1 -1.2 1 -1.5 0.8 -0.3 1.2 -1 0.9 -1.6 -0.3 -0.5 -0.1 -1 0.5 -1 0.6 0 0.8 -0.5 0.5 -1 -0.3 -0.6 0.1 -1.3 0.9 -1.6 0.9 -0.3 1.3 -1 1 -1.5 -0.3 -0.5 0.2 -1.2 1 -1.5 0.9 -0.3 1.3 -1 1 -1.5 -0.3 -0.5 0.2 -0.9 1.1 -0.9 1 0 1.5 -0.6 1.2 -1.3 -0.3 -0.7 0.4 -1.9 1.4 -2.6 1.1 -0.6 1.7 -1.6 1.4 -2.1 -0.3 -0.6 0.1 -1 0.9 -1 1.7 0 3.9 -3.4 2.9 -4.3 -0.3 -0.4 0.3 -1 1.3 -1.4 1.9 -0.7 9.7 -8.3 9.8 -9.5 0.1 -1.2 2.2 -2.8 5.7 -4.6 1.9 -0.9 3.8 -2.7 4.4 -3.9 0.5 -1.3 1.8 -2.3 2.7 -2.3 1 0 1.8 -0.7 1.8 -1.5 0 -0.8 0.8 -1.5 1.8 -1.5 1.8 -0.1 6.2 -2.9 4.6 -3.1 -0.5 -0.1 0.2 -0.4 1.6 -0.8 1.4 -0.4 2.4 -1.3 2.3 -1.9 -0.2 -0.7 0.6 -1.2 1.8 -1.2 1.1 0 1.7 -0.4 1.4 -1 -0.3 -0.5 0.1 -1 0.9 -1 2.4 0 6.6 -2.2 6 -3.1 -0.3 -0.5 0.2 -0.9 1 -0.9 0.9 0 1.6 -0.4 1.6 -0.8 0 -0.5 2.4 -1.9 5.3 -3.3 2.8 -1.3 5.4 -2.7 5.7 -3 0.3 -0.4 2.4 -1.5 4.7 -2.4 2.4 -0.9 4 -2.1 3.7 -2.6 -0.3 -0.5 0.2 -0.9 1.1 -0.9 0.9 0 2.7 -1.1 4.1 -2.5 1.4 -1.4 2.9 -2.5 3.5 -2.5 0.5 0 1.2 -0.7 1.5 -1.5 0.4 -0.8 1.1 -1.5 1.8 -1.5 1.2 0 4 -3.8 4.1 -5.5 0 -0.5 1 -1.1 2.3 -1.3 1.2 -0.2 2.2 -1 2.2 -1.8 0 -0.8 0.7 -1.4 1.5 -1.4 2 0 2 5 -0.1 13.2 -1.9 7.8 -4.1 13.9 -10.4 29.3 -13 31.7 -18.9 50.3 -24.6 77 -1.7 7.9 -2.4 31.3 -1 33.4 0.7 1.1 3.2 1.3 12.5 0.8 15.5 -0.8 28.2 -3.7 42.1 -9.8 6.3 -2.8 12.3 -5.3 13.3 -5.6 0.9 -0.3 1.7 -0.9 1.7 -1.4 0 -0.5 0.4 -0.9 0.9 -0.9 0.6 0 2.5 -1.3 4.3 -3 1.8 -1.6 3.5 -3 3.8 -3 0.7 0 17 -16.1 17 -16.8 0 -0.2 0.8 -1.6 1.9 -3 3.7 -5.2 9.8 -17.8 12.4 -25.4 3.5 -10.1 4.5 -14.9 5.7 -26.1 1.7 -16.7 -2.6 -44.7 -10 -64.8 -3.3 -8.9 -3.9 -14.9 -1.5 -14.9 0.8 0 1.5 0.3 1.5 0.8 0 0.4 1.4 2.3 3.1 4.2 1.7 1.9 3.8 4.7 4.7 6.2 0.9 1.5 2 2.8 2.4 2.8 0.4 0 0.8 0.7 0.8 1.5 0 0.8 0.4 1.5 1 1.5 0.5 0 1.2 1.1 1.6 2.5 0.3 1.4 1 2.5 1.6 2.5 0.5 0 0.6 0.5 0.3 1 -0.3 0.6 -0.2 1 0.3 1 0.5 0 1.7 2.1 2.6 4.7 1 2.7 2.5 6.4 3.3 8.3 0.9 1.9 1.7 3.7 1.8 4 0 0.3 0.6 1.5 1.3 2.8 0.7 1.2 1 2.2 0.6 2.2 -0.3 0 -0.2 0.6 0.4 1.3 0.6 0.6 1.1 1.5 1.1 2 0.1 0.4 0.1 0.8 0.2 1 0.3 0.9 0.9 3.6 1.4 6.2 0.3 1.7 0.9 3.9 1.2 5 0.4 1.1 0.8 3.1 0.9 4.5 2.3 17.5 2.8 31 1.4 31 -0.9 0 -1.1 1.2 -0.7 4.5 0.4 2.7 0.2 4.7 -0.4 5.1 -0.6 0.3 -0.8 1.7 -0.5 2.9 0.3 1.3 0.1 2.7 -0.4 3 -0.6 0.4 -0.8 1.5 -0.5 2.5 0.3 1 0.1 2.1 -0.5 2.5 -0.6 0.4 -0.9 1.3 -0.6 2.1 0.3 0.7 0.1 1.6 -0.4 1.9 -0.5 0.3 -0.7 1.2 -0.3 2 0.3 0.8 0 1.5 -0.7 1.5 -0.7 0 -0.9 0.8 -0.5 2 0.4 1.2 0.2 2 -0.5 2 -0.6 0 -0.9 0.4 -0.6 0.9 0.8 1.2 -1.4 7.1 -2.6 7.1 -0.5 0 -0.6 0.4 -0.3 1 0.7 1.2 -2.2 7 -3.6 7 -0.6 0 -0.7 0.5 -0.4 1 0.3 0.6 0.1 1 -0.6 1 -0.7 0 -0.9 0.3 -0.6 0.6 1.2 1.3 -7 14.4 -9 14.4 -0.7 0 -1.2 0.3 -1.1 0.8 0.4 1.3 -2.3 5.2 -3.6 5.2 -1.7 0 -4.8 3.5 -3.9 4.3 0.3 0.4 -0.1 0.7 -1 0.7 -1 0 -1.7 0.7 -1.7 1.4 0 1.6 -6 6.6 -7.8 6.6 -0.7 0 -1.1 0.5 -0.9 1.2 0.1 0.6 -0.8 1.4 -2.1 1.7 -1.3 0.3 -2.2 1.1 -2 1.6 0.2 0.6 -0.7 1.1 -2 1.3 -1.2 0.2 -2 0.8 -1.7 1.3 0.4 0.5 -0.3 0.9 -1.5 0.9 -1.2 0 -1.8 0.5 -1.5 1 0.3 0.6 0.1 1 -0.5 1 -2.1 0 -11 4.2 -10.5 5 0.5 0.9 -3.4 2.6 -8.2 3.5 -1.8 0.4 -3.3 1.1 -3.3 1.5 0 0.5 -2.2 1.2 -5 1.6 -2.7 0.4 -5 1 -5 1.4 0 0.5 -0.9 0.6 -2 0.3 -1.1 -0.3 -2 -0.1 -2 0.5 0 0.6 -0.9 0.8 -2 0.5 -1.1 -0.3 -2 0 -2 0.6 0 0.6 -1.1 0.8 -3 0.5 -2 -0.5 -3 -0.3 -3 0.6 0 0.8 -1 0.9 -3 0.5 -1.6 -0.4 -3.5 -0.3 -4.2 0.2 -1.3 0.8 -29.6 1.2 -30.4 0.3z m-35.1 -34.1 c2.1 -0.5 5.4 -2.4 7.4 -4.2 16.7 -14.6 1.8 -40.7 -19.8 -34.7 -4.9 1.4 -11.4 8.6 -13 14.2 -3.1 11.5 7.2 25.4 19.1 25.7 1.4 0.1 4.2 -0.4 6.3 -1z"/>
 </g>
 <g fill="#606871">
  <path d="M162.3 287.4 c-2.1 -5.1 0.1 -41.4 2.8 -46.5 0.6 -1.1 3.5 -2 10.1 -2.9 10.5 -1.4 33.7 -8.3 35.4 -10.5 0.6 -0.8 1.6 -1.5 2.3 -1.5 0.6 0 1.1 -0.4 1.1 -1 0 -0.5 0.7 -1 1.5 -1 0.8 0 1.5 -0.4 1.5 -1 0 -0.5 0.9 -1 2 -1 1.1 0 2 -0.7 2 -1.5 0 -0.8 0.7 -1.5 1.5 -1.5 0.8 0 1.5 -0.5 1.5 -1 0 -0.6 1.1 -1.5 2.5 -2 1.4 -0.5 2.5 -1.6 2.5 -2.4 0 -0.8 1.5 -2.7 3.3 -4.3 1.8 -1.6 3.6 -3.7 4 -4.6 0.3 -0.9 1.1 -1.7 1.6 -1.7 0.5 0 1.1 -1 1.5 -2.3 0.3 -1.3 1.7 -3.6 3.1 -5.1 1.4 -1.5 2.5 -3.5 2.5 -4.5 0 -1 1.1 -4.4 2.4 -7.7 6.2 -15.1 7.3 -38.5 2.6 -55.4 -1.1 -4.1 -2.6 -9.6 -3.2 -12.2 -0.7 -2.7 -1.6 -4.8 -2 -4.8 -0.5 0 -0.8 -0.7 -0.8 -1.5 0 -1.8 -3.2 -8.9 -4.2 -9.3 -0.5 -0.2 -0.8 -1.1 -0.8 -2.1 0 -0.9 -0.9 -2.7 -2 -3.9 -1.1 -1.2 -2 -2.6 -2 -3.2 0 -0.5 -0.4 -1 -1 -1 -0.5 0 -1.2 -1.1 -1.6 -2.5 -0.3 -1.4 -1 -2.5 -1.5 -2.5 -0.5 0 -0.9 -1.1 -0.9 -2.5 0 -1.6 -0.6 -2.5 -1.5 -2.5 -0.9 0 -1.5 -1 -1.5 -2.6 0 -3.3 0.4 -3.1 11.6 4.6 15 10.5 34.5 29.5 32.9 32 -0.5 0.7 1.5 6.8 4.8 15 0.6 1.4 1.1 3.2 1.3 4 1.3 7.1 4 17 4.7 17 0.4 0 0.5 1.1 0.1 2.4 -0.3 1.4 -0.3 3 0.1 3.7 1.8 2.8 2.4 30.7 1 42.9 -0.9 8.1 -1.1 9.4 -1.8 11 -1.8 4.4 -3.5 10.5 -3.1 11.2 0.3 0.4 0 0.8 -0.6 0.8 -0.7 0 -1 0.7 -0.6 1.5 0.3 0.8 0.2 1.5 -0.2 1.5 -1 0 -3.2 5.1 -2.6 6.1 0.3 0.5 0 0.9 -0.6 0.9 -0.6 0 -0.8 0.5 -0.5 1 0.3 0.6 0.1 1 -0.6 1 -0.7 0 -1 0.3 -0.6 0.6 0.3 0.3 -0.3 1.4 -1.4 2.5 -1.1 1.1 -1.7 2.4 -1.4 2.9 0.4 0.6 0.1 1 -0.5 1 -0.6 0 -0.9 0.4 -0.6 0.9 0.3 0.5 -0.1 1.2 -1 1.5 -0.8 0.3 -1.3 1 -1 1.5 0.3 0.5 -0.1 1.2 -0.9 1.5 -0.8 0.3 -1.4 0.9 -1.3 1.3 0.2 0.8 -16.1 17.3 -17.2 17.3 -0.3 0 -2 1.4 -3.8 3 -1.8 1.7 -3.7 3 -4.3 3 -0.5 0 -0.9 0.4 -0.9 0.9 0 0.5 -0.8 1.1 -1.7 1.4 -1 0.3 -7 2.8 -13.3 5.6 -15.2 6.6 -26.7 9.1 -45.2 9.8 -13.8 0.5 -14.8 0.4 -15.5 -1.3z"/>
  <path d="M327.2 199 c0 -1.9 0.2 -2.7 0.5 -1.7 0.2 0.9 0.2 2.5 0 3.5 -0.3 0.9 -0.5 0.1 -0.5 -1.8z"/>
 </g>
 <g fill="#7d858d">
  <path d="M165.7 242.4 c-0.6 -1 1.1 -8.3 5.5 -24.8 3 -10.8 7.6 -23.7 16.8 -46.1 6.9 -17 8.7 -22 10.5 -30.5 0.9 -4.1 2.3 -9.5 3.2 -12 8.1 -22.9 7 -36.7 -4.7 -59.9 -2.2 -4.4 -3.6 -8.2 -3.2 -8.4 2.4 -1.5 7.9 0.3 18.7 5.8 15.6 8 20.5 11.3 20.5 13.6 0 1.1 0.5 1.9 1 1.9 0.6 0 1 0.7 1 1.5 0 0.8 0.5 1.5 1.1 1.5 0.5 0 0.7 0.5 0.4 1 -0.3 0.6 -0.1 1 0.4 1 0.6 0 1.1 0.5 1.1 1 0 0.6 0.9 2 2 3.2 1.1 1.2 2 3 2 4 0 1 0.3 1.8 0.8 1.8 0.7 0 4.5 8.5 4.2 9.6 -0.1 0.4 0.3 1 1 1.4 0.6 0.4 1.2 1.7 1.3 2.8 0.1 1.2 0.5 2.2 1 2.2 0.5 0 0.7 0.7 0.4 1.5 -0.4 0.8 -0.2 1.7 0.4 2 0.5 0.4 0.7 1.1 0.4 1.6 -0.4 0.5 -0.1 0.9 0.5 0.9 0.7 0 1 0.7 0.6 1.5 -0.3 0.8 0 1.5 0.5 1.5 0.7 0 0.9 1.1 0.7 2.5 -0.3 1.4 -0.1 2.5 0.5 2.5 0.5 0 0.7 0.9 0.4 2 -0.3 1.1 0 2 0.5 2 0.7 0 0.8 1.4 0.5 3.5 -0.3 1.9 -0.3 3.5 0.1 3.5 0.4 0 0.7 6.5 0.7 14.5 0 8 -0.3 14.5 -0.6 14.5 -0.3 0 -0.4 1.3 -0.1 3 0.2 1.7 0 3 -0.6 3 -0.6 0 -0.8 0.9 -0.5 2 0.3 1.1 0.1 2 -0.5 2 -0.6 0 -0.8 0.9 -0.5 2 0.3 1.1 0 2 -0.6 2 -0.5 0 -0.8 0.7 -0.5 1.5 0.4 0.8 0.1 1.5 -0.6 1.5 -0.6 0 -0.8 0.5 -0.5 1 0.3 0.6 0.1 1 -0.5 1 -0.7 0 -1 0.7 -0.6 1.5 0.3 0.8 0.1 1.5 -0.5 1.5 -0.6 0 -0.7 0.5 -0.4 1 0.3 0.6 0.1 1 -0.5 1 -0.6 0 -0.8 0.4 -0.5 1 0.7 1.2 -2.2 7 -3.6 7 -0.6 0 -0.7 0.5 -0.4 1 0.3 0.6 0.1 1 -0.5 1 -0.6 0 -0.8 0.5 -0.5 1 0.3 0.6 0.1 1 -0.5 1 -0.6 0 -0.9 0.4 -0.5 0.9 0.3 0.6 -0.4 1.5 -1.5 2.1 -1.1 0.6 -1.9 1.4 -1.7 1.8 0.1 0.5 -1.5 2.3 -3.5 4.1 -2.1 1.8 -3.6 3.7 -3.5 4.3 0.1 0.6 -0.9 1.7 -2.3 2.5 -1.4 0.7 -2.4 1.7 -2.2 2.3 0.1 0.5 -0.7 1 -1.8 1 -1.1 0 -1.9 0.6 -1.8 1.2 0.2 0.7 -0.7 1.4 -2 1.6 -1.2 0.2 -2 0.8 -1.7 1.3 0.4 0.5 -0.3 0.9 -1.5 0.9 -1.2 0 -1.8 0.5 -1.5 1 0.3 0.6 -0.3 1 -1.5 1 -1.2 0 -1.9 0.4 -1.6 0.9 0.7 1 -1.3 1.8 -15.4 6.3 -5.8 1.8 -10.6 3.6 -10.8 4 -0.2 0.4 -0.9 0.5 -1.6 0.2 -1.2 -0.4 -4.6 0 -16.7 2.2 -2 0.3 -3.9 0.2 -4.2 -0.2z"/>
 </g>
</svg>